<mxfile host="65bd71144e">
    <diagram id="C5RBs43oDa-KdzZeNtuy" name="Page-1">
        <mxGraphModel dx="2966" dy="633" grid="1" gridSize="10" guides="1" tooltips="1" connect="1" arrows="1" fold="1" page="1" pageScale="1" pageWidth="827" pageHeight="1169" math="0" shadow="0">
            <root>
                <mxCell id="WIyWlLk6GJQsqaUBKTNV-0"/>
                <mxCell id="WIyWlLk6GJQsqaUBKTNV-1" parent="WIyWlLk6GJQsqaUBKTNV-0"/>
                <mxCell id="_ZFEDZUsBynfwyB9XKWT-10" style="edgeStyle=none;rounded=0;orthogonalLoop=1;jettySize=auto;html=1;exitX=0.5;exitY=1;exitDx=0;exitDy=0;entryX=0.5;entryY=0;entryDx=0;entryDy=0;fontColor=#3202F0;" parent="WIyWlLk6GJQsqaUBKTNV-1" source="_ZFEDZUsBynfwyB9XKWT-0" target="_ZFEDZUsBynfwyB9XKWT-3" edge="1">
                    <mxGeometry relative="1" as="geometry"/>
                </mxCell>
                <mxCell id="_ZFEDZUsBynfwyB9XKWT-0" value="&lt;div&gt;DASHBOARD CLICK&lt;/div&gt;" style="rounded=0;whiteSpace=wrap;html=1;fillColor=#ffe6cc;strokeColor=#d79b00;fontColor=#3202F0;" parent="WIyWlLk6GJQsqaUBKTNV-1" vertex="1">
                    <mxGeometry x="150" y="310" width="120" height="60" as="geometry"/>
                </mxCell>
                <mxCell id="_ZFEDZUsBynfwyB9XKWT-888" style="edgeStyle=none;rounded=0;orthogonalLoop=1;jettySize=auto;html=1;exitX=0;exitY=0.5;exitDx=0;exitDy=0;entryX=0.5;entryY=0;entryDx=0;entryDy=0;fontColor=#3202F0;" parent="WIyWlLk6GJQsqaUBKTNV-1" source="_ZFEDZUsBynfwyB9XKWT-1" target="_ZFEDZUsBynfwyB9XKWT-887" edge="1">
                    <mxGeometry relative="1" as="geometry"/>
                </mxCell>
                <mxCell id="_ZFEDZUsBynfwyB9XKWT-889" style="edgeStyle=none;rounded=0;orthogonalLoop=1;jettySize=auto;html=1;exitX=0;exitY=0.5;exitDx=0;exitDy=0;entryX=0.5;entryY=0;entryDx=0;entryDy=0;fontColor=#3202F0;" parent="WIyWlLk6GJQsqaUBKTNV-1" source="_ZFEDZUsBynfwyB9XKWT-1" target="_ZFEDZUsBynfwyB9XKWT-886" edge="1">
                    <mxGeometry relative="1" as="geometry"/>
                </mxCell>
                <mxCell id="_ZFEDZUsBynfwyB9XKWT-890" style="edgeStyle=none;rounded=0;orthogonalLoop=1;jettySize=auto;html=1;exitX=0;exitY=0.5;exitDx=0;exitDy=0;entryX=0.5;entryY=0;entryDx=0;entryDy=0;fontColor=#3202F0;" parent="WIyWlLk6GJQsqaUBKTNV-1" source="_ZFEDZUsBynfwyB9XKWT-1" target="_ZFEDZUsBynfwyB9XKWT-885" edge="1">
                    <mxGeometry relative="1" as="geometry">
                        <mxPoint x="-120" y="520" as="targetPoint"/>
                    </mxGeometry>
                </mxCell>
                <mxCell id="_ZFEDZUsBynfwyB9XKWT-895" style="edgeStyle=none;rounded=0;orthogonalLoop=1;jettySize=auto;html=1;exitX=0;exitY=0.5;exitDx=0;exitDy=0;entryX=0.5;entryY=1;entryDx=0;entryDy=0;fontColor=#3202F0;" parent="WIyWlLk6GJQsqaUBKTNV-1" source="_ZFEDZUsBynfwyB9XKWT-1" target="_ZFEDZUsBynfwyB9XKWT-893" edge="1">
                    <mxGeometry relative="1" as="geometry">
                        <mxPoint x="-160" y="460" as="targetPoint"/>
                    </mxGeometry>
                </mxCell>
                <mxCell id="_ZFEDZUsBynfwyB9XKWT-897" style="edgeStyle=none;rounded=0;orthogonalLoop=1;jettySize=auto;html=1;exitX=0;exitY=0.5;exitDx=0;exitDy=0;entryX=0.5;entryY=1;entryDx=0;entryDy=0;fontColor=#3202F0;" parent="WIyWlLk6GJQsqaUBKTNV-1" source="_ZFEDZUsBynfwyB9XKWT-1" target="_ZFEDZUsBynfwyB9XKWT-894" edge="1">
                    <mxGeometry relative="1" as="geometry"/>
                </mxCell>
                <mxCell id="_ZFEDZUsBynfwyB9XKWT-900" style="edgeStyle=none;rounded=0;orthogonalLoop=1;jettySize=auto;html=1;exitX=0;exitY=0.5;exitDx=0;exitDy=0;entryX=0.5;entryY=1;entryDx=0;entryDy=0;fontColor=#3202F0;" parent="WIyWlLk6GJQsqaUBKTNV-1" source="_ZFEDZUsBynfwyB9XKWT-1" target="_ZFEDZUsBynfwyB9XKWT-899" edge="1">
                    <mxGeometry relative="1" as="geometry"/>
                </mxCell>
                <mxCell id="_ZFEDZUsBynfwyB9XKWT-902" style="edgeStyle=none;rounded=0;orthogonalLoop=1;jettySize=auto;html=1;exitX=0;exitY=0.5;exitDx=0;exitDy=0;entryX=0.5;entryY=1;entryDx=0;entryDy=0;fontColor=#3202F0;" parent="WIyWlLk6GJQsqaUBKTNV-1" source="_ZFEDZUsBynfwyB9XKWT-1" target="_ZFEDZUsBynfwyB9XKWT-901" edge="1">
                    <mxGeometry relative="1" as="geometry"/>
                </mxCell>
                <mxCell id="_ZFEDZUsBynfwyB9XKWT-905" style="edgeStyle=none;rounded=0;orthogonalLoop=1;jettySize=auto;html=1;exitX=0;exitY=0.5;exitDx=0;exitDy=0;entryX=0.5;entryY=1;entryDx=0;entryDy=0;fontColor=#3202F0;" parent="WIyWlLk6GJQsqaUBKTNV-1" source="_ZFEDZUsBynfwyB9XKWT-1" target="_ZFEDZUsBynfwyB9XKWT-904" edge="1">
                    <mxGeometry relative="1" as="geometry"/>
                </mxCell>
                <mxCell id="_ZFEDZUsBynfwyB9XKWT-906" style="edgeStyle=none;rounded=0;orthogonalLoop=1;jettySize=auto;html=1;exitX=0;exitY=0.5;exitDx=0;exitDy=0;entryX=0.5;entryY=0;entryDx=0;entryDy=0;fontColor=#3202F0;" parent="WIyWlLk6GJQsqaUBKTNV-1" source="_ZFEDZUsBynfwyB9XKWT-1" target="_ZFEDZUsBynfwyB9XKWT-903" edge="1">
                    <mxGeometry relative="1" as="geometry"/>
                </mxCell>
                <mxCell id="_ZFEDZUsBynfwyB9XKWT-908" style="edgeStyle=none;rounded=0;orthogonalLoop=1;jettySize=auto;html=1;exitX=0;exitY=0.5;exitDx=0;exitDy=0;entryX=0.5;entryY=0;entryDx=0;entryDy=0;fontColor=#3202F0;" parent="WIyWlLk6GJQsqaUBKTNV-1" source="_ZFEDZUsBynfwyB9XKWT-1" target="_ZFEDZUsBynfwyB9XKWT-907" edge="1">
                    <mxGeometry relative="1" as="geometry"/>
                </mxCell>
                <mxCell id="_ZFEDZUsBynfwyB9XKWT-935" style="edgeStyle=none;rounded=0;orthogonalLoop=1;jettySize=auto;html=1;exitX=0;exitY=0.5;exitDx=0;exitDy=0;entryX=0.5;entryY=0;entryDx=0;entryDy=0;fontColor=#3202F0;" parent="WIyWlLk6GJQsqaUBKTNV-1" source="_ZFEDZUsBynfwyB9XKWT-1" target="_ZFEDZUsBynfwyB9XKWT-934" edge="1">
                    <mxGeometry relative="1" as="geometry"/>
                </mxCell>
                <mxCell id="_ZFEDZUsBynfwyB9XKWT-939" style="edgeStyle=none;rounded=0;orthogonalLoop=1;jettySize=auto;html=1;exitX=0;exitY=0.5;exitDx=0;exitDy=0;entryX=0.5;entryY=0;entryDx=0;entryDy=0;fontColor=#3202F0;" parent="WIyWlLk6GJQsqaUBKTNV-1" source="_ZFEDZUsBynfwyB9XKWT-1" target="_ZFEDZUsBynfwyB9XKWT-938" edge="1">
                    <mxGeometry relative="1" as="geometry"/>
                </mxCell>
                <mxCell id="_ZFEDZUsBynfwyB9XKWT-946" style="edgeStyle=none;rounded=0;orthogonalLoop=1;jettySize=auto;html=1;exitX=0;exitY=0.5;exitDx=0;exitDy=0;entryX=0.5;entryY=0;entryDx=0;entryDy=0;fontColor=#3202F0;" parent="WIyWlLk6GJQsqaUBKTNV-1" source="_ZFEDZUsBynfwyB9XKWT-1" target="_ZFEDZUsBynfwyB9XKWT-945" edge="1">
                    <mxGeometry relative="1" as="geometry"/>
                </mxCell>
                <mxCell id="_ZFEDZUsBynfwyB9XKWT-1" value="Dashboard" style="rounded=0;whiteSpace=wrap;html=1;fillColor=#f8cecc;strokeColor=#b85450;fontColor=#3202F0;" parent="WIyWlLk6GJQsqaUBKTNV-1" vertex="1">
                    <mxGeometry x="-80" y="470" width="120" height="60" as="geometry"/>
                </mxCell>
                <mxCell id="_ZFEDZUsBynfwyB9XKWT-5" style="edgeStyle=none;rounded=0;orthogonalLoop=1;jettySize=auto;html=1;exitX=0;exitY=0.5;exitDx=0;exitDy=0;entryX=1;entryY=0.5;entryDx=0;entryDy=0;fontColor=#3202F0;" parent="WIyWlLk6GJQsqaUBKTNV-1" source="_ZFEDZUsBynfwyB9XKWT-6" target="_ZFEDZUsBynfwyB9XKWT-1" edge="1">
                    <mxGeometry relative="1" as="geometry">
                        <mxPoint x="120" y="510" as="targetPoint"/>
                    </mxGeometry>
                </mxCell>
                <mxCell id="_ZFEDZUsBynfwyB9XKWT-9" value="NO" style="edgeStyle=none;rounded=0;orthogonalLoop=1;jettySize=auto;html=1;exitX=1;exitY=0.5;exitDx=0;exitDy=0;entryX=0.5;entryY=0;entryDx=0;entryDy=0;fontColor=#3202F0;" parent="WIyWlLk6GJQsqaUBKTNV-1" source="_ZFEDZUsBynfwyB9XKWT-3" target="_ZFEDZUsBynfwyB9XKWT-20" edge="1">
                    <mxGeometry relative="1" as="geometry">
                        <mxPoint x="280" y="570" as="targetPoint"/>
                    </mxGeometry>
                </mxCell>
                <mxCell id="_ZFEDZUsBynfwyB9XKWT-3" value="Islogged" style="rhombus;whiteSpace=wrap;html=1;fillColor=#d5e8d4;strokeColor=#82b366;fontColor=#3202F0;" parent="WIyWlLk6GJQsqaUBKTNV-1" vertex="1">
                    <mxGeometry x="170" y="460" width="80" height="80" as="geometry"/>
                </mxCell>
                <mxCell id="_ZFEDZUsBynfwyB9XKWT-8" value="" style="edgeStyle=none;rounded=0;orthogonalLoop=1;jettySize=auto;html=1;exitX=0;exitY=0.5;exitDx=0;exitDy=0;entryX=1;entryY=0.5;entryDx=0;entryDy=0;fontColor=#3202F0;" parent="WIyWlLk6GJQsqaUBKTNV-1" source="_ZFEDZUsBynfwyB9XKWT-3" target="_ZFEDZUsBynfwyB9XKWT-6" edge="1">
                    <mxGeometry relative="1" as="geometry">
                        <mxPoint x="90" y="500" as="targetPoint"/>
                        <mxPoint x="170" y="500" as="sourcePoint"/>
                    </mxGeometry>
                </mxCell>
                <mxCell id="_ZFEDZUsBynfwyB9XKWT-6" value="YES&lt;div&gt;&lt;br&gt;&lt;/div&gt;" style="text;strokeColor=none;align=center;fillColor=none;html=1;verticalAlign=middle;whiteSpace=wrap;rounded=0;fontColor=#3202F0;" parent="WIyWlLk6GJQsqaUBKTNV-1" vertex="1">
                    <mxGeometry x="100" y="485" width="60" height="30" as="geometry"/>
                </mxCell>
                <mxCell id="_ZFEDZUsBynfwyB9XKWT-15" style="edgeStyle=none;rounded=0;orthogonalLoop=1;jettySize=auto;html=1;exitX=0;exitY=1;exitDx=0;exitDy=0;entryX=0.5;entryY=0;entryDx=0;entryDy=0;fontColor=#3202F0;" parent="WIyWlLk6GJQsqaUBKTNV-1" source="_ZFEDZUsBynfwyB9XKWT-11" target="_ZFEDZUsBynfwyB9XKWT-0" edge="1">
                    <mxGeometry relative="1" as="geometry"/>
                </mxCell>
                <mxCell id="_ZFEDZUsBynfwyB9XKWT-867" style="edgeStyle=none;rounded=0;orthogonalLoop=1;jettySize=auto;html=1;exitX=0.5;exitY=1;exitDx=0;exitDy=0;entryX=0.5;entryY=0;entryDx=0;entryDy=0;fontColor=#3202F0;" parent="WIyWlLk6GJQsqaUBKTNV-1" source="_ZFEDZUsBynfwyB9XKWT-11" target="_ZFEDZUsBynfwyB9XKWT-12" edge="1">
                    <mxGeometry relative="1" as="geometry"/>
                </mxCell>
                <mxCell id="_ZFEDZUsBynfwyB9XKWT-868" style="edgeStyle=none;rounded=0;orthogonalLoop=1;jettySize=auto;html=1;exitX=1;exitY=1;exitDx=0;exitDy=0;entryX=0.5;entryY=0;entryDx=0;entryDy=0;fontColor=#3202F0;" parent="WIyWlLk6GJQsqaUBKTNV-1" source="_ZFEDZUsBynfwyB9XKWT-11" target="_ZFEDZUsBynfwyB9XKWT-862" edge="1">
                    <mxGeometry relative="1" as="geometry"/>
                </mxCell>
                <mxCell id="_ZFEDZUsBynfwyB9XKWT-11" value="LandingPage" style="rounded=0;whiteSpace=wrap;html=1;fillColor=#f8cecc;strokeColor=#b85450;fontColor=#3202F0;" parent="WIyWlLk6GJQsqaUBKTNV-1" vertex="1">
                    <mxGeometry x="390" y="130" width="120" height="60" as="geometry"/>
                </mxCell>
                <mxCell id="_ZFEDZUsBynfwyB9XKWT-21" style="edgeStyle=none;rounded=0;orthogonalLoop=1;jettySize=auto;html=1;exitX=0.5;exitY=1;exitDx=0;exitDy=0;fontColor=#3202F0;" parent="WIyWlLk6GJQsqaUBKTNV-1" source="_ZFEDZUsBynfwyB9XKWT-12" target="_ZFEDZUsBynfwyB9XKWT-20" edge="1">
                    <mxGeometry relative="1" as="geometry"/>
                </mxCell>
                <mxCell id="_ZFEDZUsBynfwyB9XKWT-12" value="REGISTERLOGIN CLICK" style="rounded=0;whiteSpace=wrap;html=1;fillColor=#ffe6cc;strokeColor=#d79b00;fontColor=#3202F0;" parent="WIyWlLk6GJQsqaUBKTNV-1" vertex="1">
                    <mxGeometry x="420" y="340" width="120" height="60" as="geometry"/>
                </mxCell>
                <mxCell id="_ZFEDZUsBynfwyB9XKWT-14" style="edgeStyle=none;rounded=0;orthogonalLoop=1;jettySize=auto;html=1;exitX=0.25;exitY=0;exitDx=0;exitDy=0;fontColor=#3202F0;" parent="WIyWlLk6GJQsqaUBKTNV-1" source="_ZFEDZUsBynfwyB9XKWT-11" target="_ZFEDZUsBynfwyB9XKWT-11" edge="1">
                    <mxGeometry relative="1" as="geometry"/>
                </mxCell>
                <mxCell id="_ZFEDZUsBynfwyB9XKWT-859" style="edgeStyle=none;rounded=0;orthogonalLoop=1;jettySize=auto;html=1;exitX=0.5;exitY=1;exitDx=0;exitDy=0;entryX=0.5;entryY=0;entryDx=0;entryDy=0;fontColor=#3202F0;" parent="WIyWlLk6GJQsqaUBKTNV-1" source="_ZFEDZUsBynfwyB9XKWT-20" target="_ZFEDZUsBynfwyB9XKWT-26" edge="1">
                    <mxGeometry relative="1" as="geometry"/>
                </mxCell>
                <mxCell id="_ZFEDZUsBynfwyB9XKWT-865" style="edgeStyle=none;rounded=0;orthogonalLoop=1;jettySize=auto;html=1;exitX=0.5;exitY=1;exitDx=0;exitDy=0;entryX=0.5;entryY=0;entryDx=0;entryDy=0;fontColor=#3202F0;" parent="WIyWlLk6GJQsqaUBKTNV-1" source="_ZFEDZUsBynfwyB9XKWT-20" target="_ZFEDZUsBynfwyB9XKWT-27" edge="1">
                    <mxGeometry relative="1" as="geometry"/>
                </mxCell>
                <mxCell id="_ZFEDZUsBynfwyB9XKWT-20" value="RegisterLogin" style="rounded=0;whiteSpace=wrap;html=1;fillColor=#f8cecc;strokeColor=#b85450;fontColor=#3202F0;" parent="WIyWlLk6GJQsqaUBKTNV-1" vertex="1">
                    <mxGeometry x="430" y="500" width="120" height="60" as="geometry"/>
                </mxCell>
                <mxCell id="_ZFEDZUsBynfwyB9XKWT-879" style="edgeStyle=none;rounded=0;orthogonalLoop=1;jettySize=auto;html=1;exitX=0.5;exitY=1;exitDx=0;exitDy=0;entryX=0.5;entryY=0;entryDx=0;entryDy=0;fontColor=#3202F0;" parent="WIyWlLk6GJQsqaUBKTNV-1" source="_ZFEDZUsBynfwyB9XKWT-22" target="_ZFEDZUsBynfwyB9XKWT-878" edge="1">
                    <mxGeometry relative="1" as="geometry"/>
                </mxCell>
                <mxCell id="_ZFEDZUsBynfwyB9XKWT-22" value="Forgotten&amp;nbsp;&lt;div&gt;Pass&lt;/div&gt;" style="rounded=0;whiteSpace=wrap;html=1;fontColor=#3202F0;" parent="WIyWlLk6GJQsqaUBKTNV-1" vertex="1">
                    <mxGeometry x="430" y="940" width="120" height="60" as="geometry"/>
                </mxCell>
                <mxCell id="_ZFEDZUsBynfwyB9XKWT-860" style="edgeStyle=none;rounded=0;orthogonalLoop=1;jettySize=auto;html=1;exitX=0.5;exitY=1;exitDx=0;exitDy=0;entryX=0.5;entryY=0;entryDx=0;entryDy=0;fontColor=#3202F0;" parent="WIyWlLk6GJQsqaUBKTNV-1" source="_ZFEDZUsBynfwyB9XKWT-26" target="_ZFEDZUsBynfwyB9XKWT-22" edge="1">
                    <mxGeometry relative="1" as="geometry"/>
                </mxCell>
                <mxCell id="_ZFEDZUsBynfwyB9XKWT-877" style="edgeStyle=none;rounded=0;orthogonalLoop=1;jettySize=auto;html=1;exitX=0.5;exitY=1;exitDx=0;exitDy=0;entryX=0.5;entryY=0;entryDx=0;entryDy=0;fontColor=#3202F0;" parent="WIyWlLk6GJQsqaUBKTNV-1" source="_ZFEDZUsBynfwyB9XKWT-26" target="_ZFEDZUsBynfwyB9XKWT-874" edge="1">
                    <mxGeometry relative="1" as="geometry"/>
                </mxCell>
                <mxCell id="_ZFEDZUsBynfwyB9XKWT-26" value="Login" style="rounded=0;whiteSpace=wrap;html=1;fillColor=#dae8fc;strokeColor=#6c8ebf;fontColor=#3202F0;" parent="WIyWlLk6GJQsqaUBKTNV-1" vertex="1">
                    <mxGeometry x="340" y="780" width="120" height="60" as="geometry"/>
                </mxCell>
                <mxCell id="_ZFEDZUsBynfwyB9XKWT-871" style="edgeStyle=none;rounded=0;orthogonalLoop=1;jettySize=auto;html=1;exitX=0.5;exitY=1;exitDx=0;exitDy=0;entryX=0.5;entryY=0;entryDx=0;entryDy=0;fontColor=#3202F0;" parent="WIyWlLk6GJQsqaUBKTNV-1" source="_ZFEDZUsBynfwyB9XKWT-27" target="_ZFEDZUsBynfwyB9XKWT-26" edge="1">
                    <mxGeometry relative="1" as="geometry"/>
                </mxCell>
                <mxCell id="_ZFEDZUsBynfwyB9XKWT-27" value="Register" style="rounded=0;whiteSpace=wrap;html=1;fillColor=#dae8fc;strokeColor=#6c8ebf;fontColor=#3202F0;" parent="WIyWlLk6GJQsqaUBKTNV-1" vertex="1">
                    <mxGeometry x="530" y="720" width="120" height="60" as="geometry"/>
                </mxCell>
                <mxCell id="_ZFEDZUsBynfwyB9XKWT-28" style="edgeStyle=none;rounded=0;orthogonalLoop=1;jettySize=auto;html=1;exitX=0.5;exitY=0;exitDx=0;exitDy=0;fontColor=#3202F0;" parent="WIyWlLk6GJQsqaUBKTNV-1" edge="1">
                    <mxGeometry relative="1" as="geometry">
                        <mxPoint x="260" y="860" as="sourcePoint"/>
                        <mxPoint x="260" y="860" as="targetPoint"/>
                    </mxGeometry>
                </mxCell>
                <mxCell id="_ZFEDZUsBynfwyB9XKWT-857" style="edgeStyle=none;rounded=0;orthogonalLoop=1;jettySize=auto;html=1;exitX=1;exitY=0.5;exitDx=0;exitDy=0;fontColor=#3202F0;" parent="WIyWlLk6GJQsqaUBKTNV-1" source="_ZFEDZUsBynfwyB9XKWT-22" target="_ZFEDZUsBynfwyB9XKWT-22" edge="1">
                    <mxGeometry relative="1" as="geometry"/>
                </mxCell>
                <mxCell id="_ZFEDZUsBynfwyB9XKWT-862" value="DOWNLOAD CLICK" style="rounded=0;whiteSpace=wrap;html=1;fillColor=#ffe6cc;strokeColor=#d79b00;fontColor=#3202F0;" parent="WIyWlLk6GJQsqaUBKTNV-1" vertex="1">
                    <mxGeometry x="670" y="340" width="120" height="60" as="geometry"/>
                </mxCell>
                <mxCell id="_ZFEDZUsBynfwyB9XKWT-863" value="Download" style="rounded=0;whiteSpace=wrap;html=1;fillColor=#dae8fc;strokeColor=#6c8ebf;fontColor=#3202F0;" parent="WIyWlLk6GJQsqaUBKTNV-1" vertex="1">
                    <mxGeometry x="670" y="485" width="120" height="60" as="geometry"/>
                </mxCell>
                <mxCell id="_ZFEDZUsBynfwyB9XKWT-864" style="edgeStyle=none;rounded=0;orthogonalLoop=1;jettySize=auto;html=1;exitX=0.5;exitY=1;exitDx=0;exitDy=0;entryX=0.518;entryY=-0.108;entryDx=0;entryDy=0;entryPerimeter=0;fontColor=#3202F0;" parent="WIyWlLk6GJQsqaUBKTNV-1" source="_ZFEDZUsBynfwyB9XKWT-862" target="_ZFEDZUsBynfwyB9XKWT-863" edge="1">
                    <mxGeometry relative="1" as="geometry"/>
                </mxCell>
                <mxCell id="_ZFEDZUsBynfwyB9XKWT-875" style="edgeStyle=none;rounded=0;orthogonalLoop=1;jettySize=auto;html=1;exitX=0;exitY=0;exitDx=0;exitDy=0;entryX=0.5;entryY=1;entryDx=0;entryDy=0;fontColor=#3202F0;" parent="WIyWlLk6GJQsqaUBKTNV-1" source="_ZFEDZUsBynfwyB9XKWT-874" target="_ZFEDZUsBynfwyB9XKWT-1" edge="1">
                    <mxGeometry relative="1" as="geometry"/>
                </mxCell>
                <mxCell id="_ZFEDZUsBynfwyB9XKWT-874" value="Correct Data&lt;div&gt;&lt;br&gt;&lt;/div&gt;" style="rounded=0;whiteSpace=wrap;html=1;fontColor=#3202F0;" parent="WIyWlLk6GJQsqaUBKTNV-1" vertex="1">
                    <mxGeometry x="240" y="930" width="120" height="60" as="geometry"/>
                </mxCell>
                <mxCell id="_ZFEDZUsBynfwyB9XKWT-876" style="edgeStyle=none;rounded=0;orthogonalLoop=1;jettySize=auto;html=1;exitX=0.5;exitY=0;exitDx=0;exitDy=0;fontColor=#3202F0;" parent="WIyWlLk6GJQsqaUBKTNV-1" source="_ZFEDZUsBynfwyB9XKWT-874" target="_ZFEDZUsBynfwyB9XKWT-874" edge="1">
                    <mxGeometry relative="1" as="geometry"/>
                </mxCell>
                <mxCell id="_ZFEDZUsBynfwyB9XKWT-881" value="" style="edgeStyle=none;rounded=0;orthogonalLoop=1;jettySize=auto;html=1;fontColor=#3202F0;" parent="WIyWlLk6GJQsqaUBKTNV-1" source="_ZFEDZUsBynfwyB9XKWT-878" target="_ZFEDZUsBynfwyB9XKWT-880" edge="1">
                    <mxGeometry relative="1" as="geometry"/>
                </mxCell>
                <mxCell id="_ZFEDZUsBynfwyB9XKWT-878" value="Email with code" style="rounded=0;whiteSpace=wrap;html=1;fontColor=#3202F0;" parent="WIyWlLk6GJQsqaUBKTNV-1" vertex="1">
                    <mxGeometry x="430" y="1050" width="120" height="60" as="geometry"/>
                </mxCell>
                <mxCell id="_ZFEDZUsBynfwyB9XKWT-883" value="" style="edgeStyle=none;rounded=0;orthogonalLoop=1;jettySize=auto;html=1;fontColor=#3202F0;" parent="WIyWlLk6GJQsqaUBKTNV-1" source="_ZFEDZUsBynfwyB9XKWT-880" target="_ZFEDZUsBynfwyB9XKWT-882" edge="1">
                    <mxGeometry relative="1" as="geometry"/>
                </mxCell>
                <mxCell id="_ZFEDZUsBynfwyB9XKWT-880" value="New Pass" style="rounded=0;whiteSpace=wrap;html=1;fontColor=#3202F0;" parent="WIyWlLk6GJQsqaUBKTNV-1" vertex="1">
                    <mxGeometry x="630" y="1050" width="120" height="60" as="geometry"/>
                </mxCell>
                <mxCell id="_ZFEDZUsBynfwyB9XKWT-884" style="edgeStyle=none;rounded=0;orthogonalLoop=1;jettySize=auto;html=1;exitX=0;exitY=0;exitDx=0;exitDy=0;entryX=1;entryY=0.5;entryDx=0;entryDy=0;fontColor=#3202F0;" parent="WIyWlLk6GJQsqaUBKTNV-1" source="_ZFEDZUsBynfwyB9XKWT-882" target="_ZFEDZUsBynfwyB9XKWT-26" edge="1">
                    <mxGeometry relative="1" as="geometry"/>
                </mxCell>
                <mxCell id="_ZFEDZUsBynfwyB9XKWT-882" value="All Correct" style="rounded=0;whiteSpace=wrap;html=1;fontColor=#3202F0;" parent="WIyWlLk6GJQsqaUBKTNV-1" vertex="1">
                    <mxGeometry x="630" y="910" width="120" height="60" as="geometry"/>
                </mxCell>
                <mxCell id="_ZFEDZUsBynfwyB9XKWT-913" style="edgeStyle=none;rounded=0;orthogonalLoop=1;jettySize=auto;html=1;exitX=0.5;exitY=1;exitDx=0;exitDy=0;fontColor=#3202F0;" parent="WIyWlLk6GJQsqaUBKTNV-1" source="_ZFEDZUsBynfwyB9XKWT-885" target="_ZFEDZUsBynfwyB9XKWT-909" edge="1">
                    <mxGeometry relative="1" as="geometry"/>
                </mxCell>
                <mxCell id="_ZFEDZUsBynfwyB9XKWT-885" value="Librus" style="rounded=0;whiteSpace=wrap;html=1;fillColor=#ffe6cc;strokeColor=#d79b00;fontColor=#3202F0;" parent="WIyWlLk6GJQsqaUBKTNV-1" vertex="1">
                    <mxGeometry x="-240" y="584" width="120" height="60" as="geometry"/>
                </mxCell>
                <mxCell id="_ZFEDZUsBynfwyB9XKWT-918" style="edgeStyle=none;rounded=0;orthogonalLoop=1;jettySize=auto;html=1;exitX=0.5;exitY=1;exitDx=0;exitDy=0;entryX=0.5;entryY=0;entryDx=0;entryDy=0;fontColor=#3202F0;" parent="WIyWlLk6GJQsqaUBKTNV-1" source="_ZFEDZUsBynfwyB9XKWT-886" target="_ZFEDZUsBynfwyB9XKWT-917" edge="1">
                    <mxGeometry relative="1" as="geometry"/>
                </mxCell>
                <mxCell id="_ZFEDZUsBynfwyB9XKWT-886" value="Notes" style="rounded=0;whiteSpace=wrap;html=1;fillColor=#ffe6cc;strokeColor=#d79b00;fontColor=#3202F0;" parent="WIyWlLk6GJQsqaUBKTNV-1" vertex="1">
                    <mxGeometry x="-410" y="584" width="120" height="60" as="geometry"/>
                </mxCell>
                <mxCell id="_ZFEDZUsBynfwyB9XKWT-920" style="edgeStyle=none;rounded=0;orthogonalLoop=1;jettySize=auto;html=1;exitX=0.5;exitY=1;exitDx=0;exitDy=0;entryX=0.5;entryY=0;entryDx=0;entryDy=0;fontColor=#3202F0;" parent="WIyWlLk6GJQsqaUBKTNV-1" source="_ZFEDZUsBynfwyB9XKWT-887" target="_ZFEDZUsBynfwyB9XKWT-919" edge="1">
                    <mxGeometry relative="1" as="geometry"/>
                </mxCell>
                <mxCell id="_ZFEDZUsBynfwyB9XKWT-922" value="" style="edgeStyle=none;rounded=0;orthogonalLoop=1;jettySize=auto;html=1;fontColor=#3202F0;" parent="WIyWlLk6GJQsqaUBKTNV-1" source="_ZFEDZUsBynfwyB9XKWT-887" target="_ZFEDZUsBynfwyB9XKWT-921" edge="1">
                    <mxGeometry relative="1" as="geometry"/>
                </mxCell>
                <mxCell id="_ZFEDZUsBynfwyB9XKWT-887" value="Calendar" style="rounded=0;whiteSpace=wrap;html=1;fillColor=#ffe6cc;strokeColor=#d79b00;fontColor=#3202F0;" parent="WIyWlLk6GJQsqaUBKTNV-1" vertex="1">
                    <mxGeometry x="-580" y="584" width="120" height="60" as="geometry"/>
                </mxCell>
                <mxCell id="_ZFEDZUsBynfwyB9XKWT-893" value="Actual Weather" style="rounded=0;whiteSpace=wrap;html=1;fillColor=#dae8fc;strokeColor=#6c8ebf;fontColor=#3202F0;" parent="WIyWlLk6GJQsqaUBKTNV-1" vertex="1">
                    <mxGeometry x="-220" y="380" width="120" height="60" as="geometry"/>
                </mxCell>
                <mxCell id="_ZFEDZUsBynfwyB9XKWT-894" value="Quote of the day" style="rounded=0;whiteSpace=wrap;html=1;fillColor=#dae8fc;strokeColor=#6c8ebf;fontColor=#3202F0;" parent="WIyWlLk6GJQsqaUBKTNV-1" vertex="1">
                    <mxGeometry x="-400" y="380" width="120" height="60" as="geometry"/>
                </mxCell>
                <mxCell id="_ZFEDZUsBynfwyB9XKWT-896" style="edgeStyle=none;rounded=0;orthogonalLoop=1;jettySize=auto;html=1;entryX=0.5;entryY=1;entryDx=0;entryDy=0;fontColor=#3202F0;" parent="WIyWlLk6GJQsqaUBKTNV-1" source="_ZFEDZUsBynfwyB9XKWT-893" target="_ZFEDZUsBynfwyB9XKWT-893" edge="1">
                    <mxGeometry relative="1" as="geometry"/>
                </mxCell>
                <mxCell id="_ZFEDZUsBynfwyB9XKWT-899" value="Daily to do list" style="rounded=0;whiteSpace=wrap;html=1;fillColor=#dae8fc;strokeColor=#6c8ebf;fontColor=#3202F0;" parent="WIyWlLk6GJQsqaUBKTNV-1" vertex="1">
                    <mxGeometry x="-570" y="380" width="120" height="60" as="geometry"/>
                </mxCell>
                <mxCell id="_ZFEDZUsBynfwyB9XKWT-901" value="Clock" style="rounded=0;whiteSpace=wrap;html=1;fillColor=#dae8fc;strokeColor=#6c8ebf;fontColor=#3202F0;" parent="WIyWlLk6GJQsqaUBKTNV-1" vertex="1">
                    <mxGeometry x="-720" y="380" width="120" height="60" as="geometry"/>
                </mxCell>
                <mxCell id="_ZFEDZUsBynfwyB9XKWT-929" style="edgeStyle=none;rounded=0;orthogonalLoop=1;jettySize=auto;html=1;exitX=0.5;exitY=1;exitDx=0;exitDy=0;entryX=0.5;entryY=0;entryDx=0;entryDy=0;fontColor=#3202F0;" parent="WIyWlLk6GJQsqaUBKTNV-1" source="_ZFEDZUsBynfwyB9XKWT-903" target="_ZFEDZUsBynfwyB9XKWT-928" edge="1">
                    <mxGeometry relative="1" as="geometry"/>
                </mxCell>
                <mxCell id="_ZFEDZUsBynfwyB9XKWT-903" value="Set Goals" style="rounded=0;whiteSpace=wrap;html=1;fillColor=#ffe6cc;strokeColor=#d79b00;fontColor=#3202F0;" parent="WIyWlLk6GJQsqaUBKTNV-1" vertex="1">
                    <mxGeometry x="-750" y="585" width="120" height="60" as="geometry"/>
                </mxCell>
                <mxCell id="_ZFEDZUsBynfwyB9XKWT-904" value="&lt;font&gt;Actual Goals&lt;/font&gt;" style="rounded=0;whiteSpace=wrap;html=1;fillColor=#dae8fc;strokeColor=#6c8ebf;fontColor=#3202F0;" parent="WIyWlLk6GJQsqaUBKTNV-1" vertex="1">
                    <mxGeometry x="-880" y="380" width="120" height="60" as="geometry"/>
                </mxCell>
                <mxCell id="_ZFEDZUsBynfwyB9XKWT-932" style="edgeStyle=none;rounded=0;orthogonalLoop=1;jettySize=auto;html=1;exitX=0.5;exitY=1;exitDx=0;exitDy=0;entryX=0.5;entryY=0;entryDx=0;entryDy=0;fontColor=#3202F0;" parent="WIyWlLk6GJQsqaUBKTNV-1" source="_ZFEDZUsBynfwyB9XKWT-907" target="_ZFEDZUsBynfwyB9XKWT-930" edge="1">
                    <mxGeometry relative="1" as="geometry"/>
                </mxCell>
                <mxCell id="_ZFEDZUsBynfwyB9XKWT-933" style="edgeStyle=none;rounded=0;orthogonalLoop=1;jettySize=auto;html=1;exitX=0.5;exitY=1;exitDx=0;exitDy=0;entryX=0.5;entryY=0;entryDx=0;entryDy=0;fontColor=#3202F0;" parent="WIyWlLk6GJQsqaUBKTNV-1" source="_ZFEDZUsBynfwyB9XKWT-907" target="_ZFEDZUsBynfwyB9XKWT-931" edge="1">
                    <mxGeometry relative="1" as="geometry"/>
                </mxCell>
                <mxCell id="_ZFEDZUsBynfwyB9XKWT-907" value="Translatetor" style="rounded=0;whiteSpace=wrap;html=1;fillColor=#ffe6cc;strokeColor=#d79b00;fontColor=#3202F0;" parent="WIyWlLk6GJQsqaUBKTNV-1" vertex="1">
                    <mxGeometry x="-910" y="584" width="120" height="60" as="geometry"/>
                </mxCell>
                <mxCell id="_ZFEDZUsBynfwyB9XKWT-914" style="edgeStyle=none;rounded=0;orthogonalLoop=1;jettySize=auto;html=1;exitX=0.5;exitY=1;exitDx=0;exitDy=0;entryX=0.5;entryY=0;entryDx=0;entryDy=0;fontColor=#3202F0;" parent="WIyWlLk6GJQsqaUBKTNV-1" source="_ZFEDZUsBynfwyB9XKWT-909" target="_ZFEDZUsBynfwyB9XKWT-911" edge="1">
                    <mxGeometry relative="1" as="geometry"/>
                </mxCell>
                <mxCell id="_ZFEDZUsBynfwyB9XKWT-915" style="edgeStyle=none;rounded=0;orthogonalLoop=1;jettySize=auto;html=1;exitX=0.5;exitY=1;exitDx=0;exitDy=0;entryX=0.5;entryY=0;entryDx=0;entryDy=0;fontColor=#3202F0;" parent="WIyWlLk6GJQsqaUBKTNV-1" source="_ZFEDZUsBynfwyB9XKWT-909" target="_ZFEDZUsBynfwyB9XKWT-912" edge="1">
                    <mxGeometry relative="1" as="geometry"/>
                </mxCell>
                <mxCell id="_ZFEDZUsBynfwyB9XKWT-916" style="edgeStyle=none;rounded=0;orthogonalLoop=1;jettySize=auto;html=1;exitX=0.5;exitY=1;exitDx=0;exitDy=0;entryX=0.5;entryY=0;entryDx=0;entryDy=0;fontColor=#3202F0;" parent="WIyWlLk6GJQsqaUBKTNV-1" source="_ZFEDZUsBynfwyB9XKWT-909" target="_ZFEDZUsBynfwyB9XKWT-910" edge="1">
                    <mxGeometry relative="1" as="geometry"/>
                </mxCell>
                <mxCell id="_ZFEDZUsBynfwyB9XKWT-909" value="Logowanie" style="rounded=0;whiteSpace=wrap;html=1;fillColor=#f8cecc;strokeColor=#b85450;fontColor=#3202F0;" parent="WIyWlLk6GJQsqaUBKTNV-1" vertex="1">
                    <mxGeometry x="-240" y="680" width="120" height="60" as="geometry"/>
                </mxCell>
                <mxCell id="_ZFEDZUsBynfwyB9XKWT-910" value="WIadomości" style="rounded=0;whiteSpace=wrap;html=1;fillColor=#dae8fc;strokeColor=#6c8ebf;fontColor=#3202F0;" parent="WIyWlLk6GJQsqaUBKTNV-1" vertex="1">
                    <mxGeometry x="-170" y="960" width="120" height="60" as="geometry"/>
                </mxCell>
                <mxCell id="_ZFEDZUsBynfwyB9XKWT-911" value="Oceny" style="rounded=0;whiteSpace=wrap;html=1;fillColor=#dae8fc;strokeColor=#6c8ebf;fontColor=#3202F0;" parent="WIyWlLk6GJQsqaUBKTNV-1" vertex="1">
                    <mxGeometry x="-260" y="880" width="120" height="60" as="geometry"/>
                </mxCell>
                <mxCell id="_ZFEDZUsBynfwyB9XKWT-912" value="Terminarz" style="rounded=0;whiteSpace=wrap;html=1;fillColor=#dae8fc;strokeColor=#6c8ebf;fontColor=#3202F0;" parent="WIyWlLk6GJQsqaUBKTNV-1" vertex="1">
                    <mxGeometry x="-110" y="870" width="120" height="60" as="geometry"/>
                </mxCell>
                <mxCell id="_ZFEDZUsBynfwyB9XKWT-917" value="Add Notes" style="rounded=0;whiteSpace=wrap;html=1;fillColor=#dae8fc;strokeColor=#6c8ebf;fontColor=#3202F0;" parent="WIyWlLk6GJQsqaUBKTNV-1" vertex="1">
                    <mxGeometry x="-410" y="720" width="120" height="60" as="geometry"/>
                </mxCell>
                <mxCell id="_ZFEDZUsBynfwyB9XKWT-919" value="Add Events" style="rounded=0;whiteSpace=wrap;html=1;fillColor=#dae8fc;strokeColor=#6c8ebf;fontColor=#3202F0;" parent="WIyWlLk6GJQsqaUBKTNV-1" vertex="1">
                    <mxGeometry x="-650" y="850" width="120" height="80" as="geometry"/>
                </mxCell>
                <mxCell id="_ZFEDZUsBynfwyB9XKWT-921" value="See Calendar" style="rounded=0;whiteSpace=wrap;html=1;fillColor=#dae8fc;strokeColor=#6c8ebf;fontColor=#3202F0;" parent="WIyWlLk6GJQsqaUBKTNV-1" vertex="1">
                    <mxGeometry x="-500" y="850" width="130" height="80" as="geometry"/>
                </mxCell>
                <mxCell id="_ZFEDZUsBynfwyB9XKWT-928" value="Set Goals" style="rounded=0;whiteSpace=wrap;html=1;fillColor=#dae8fc;strokeColor=#6c8ebf;fontColor=#3202F0;" parent="WIyWlLk6GJQsqaUBKTNV-1" vertex="1">
                    <mxGeometry x="-760" y="720" width="120" height="60" as="geometry"/>
                </mxCell>
                <mxCell id="_ZFEDZUsBynfwyB9XKWT-930" value="Output" style="rounded=0;whiteSpace=wrap;html=1;fillColor=#dae8fc;strokeColor=#6c8ebf;fontColor=#3202F0;" parent="WIyWlLk6GJQsqaUBKTNV-1" vertex="1">
                    <mxGeometry x="-990" y="830" width="120" height="60" as="geometry"/>
                </mxCell>
                <mxCell id="_ZFEDZUsBynfwyB9XKWT-931" value="Input" style="rounded=0;whiteSpace=wrap;html=1;fillColor=#dae8fc;strokeColor=#6c8ebf;fontColor=#3202F0;" parent="WIyWlLk6GJQsqaUBKTNV-1" vertex="1">
                    <mxGeometry x="-820" y="830" width="120" height="60" as="geometry"/>
                </mxCell>
                <mxCell id="_ZFEDZUsBynfwyB9XKWT-937" style="edgeStyle=none;rounded=0;orthogonalLoop=1;jettySize=auto;html=1;exitX=0.5;exitY=1;exitDx=0;exitDy=0;entryX=0.5;entryY=0;entryDx=0;entryDy=0;fontColor=#3202F0;" parent="WIyWlLk6GJQsqaUBKTNV-1" source="_ZFEDZUsBynfwyB9XKWT-934" target="_ZFEDZUsBynfwyB9XKWT-936" edge="1">
                    <mxGeometry relative="1" as="geometry">
                        <mxPoint x="-1040" y="690" as="targetPoint"/>
                    </mxGeometry>
                </mxCell>
                <mxCell id="_ZFEDZUsBynfwyB9XKWT-934" value="set Daily to do list" style="rounded=0;whiteSpace=wrap;html=1;fillColor=#ffe6cc;strokeColor=#d79b00;fontColor=#3202F0;" parent="WIyWlLk6GJQsqaUBKTNV-1" vertex="1">
                    <mxGeometry x="-1090" y="585" width="120" height="60" as="geometry"/>
                </mxCell>
                <mxCell id="_ZFEDZUsBynfwyB9XKWT-936" value="Set daily to do list" style="rounded=0;whiteSpace=wrap;html=1;fillColor=#dae8fc;strokeColor=#6c8ebf;fontColor=#3202F0;" parent="WIyWlLk6GJQsqaUBKTNV-1" vertex="1">
                    <mxGeometry x="-1090" y="710" width="120" height="60" as="geometry"/>
                </mxCell>
                <mxCell id="_ZFEDZUsBynfwyB9XKWT-941" value="" style="edgeStyle=none;rounded=0;orthogonalLoop=1;jettySize=auto;html=1;fontColor=#3202F0;" parent="WIyWlLk6GJQsqaUBKTNV-1" source="_ZFEDZUsBynfwyB9XKWT-938" target="_ZFEDZUsBynfwyB9XKWT-940" edge="1">
                    <mxGeometry relative="1" as="geometry"/>
                </mxCell>
                <mxCell id="_ZFEDZUsBynfwyB9XKWT-942" value="" style="edgeStyle=none;rounded=0;orthogonalLoop=1;jettySize=auto;html=1;fontColor=#3202F0;" parent="WIyWlLk6GJQsqaUBKTNV-1" source="_ZFEDZUsBynfwyB9XKWT-938" target="_ZFEDZUsBynfwyB9XKWT-940" edge="1">
                    <mxGeometry relative="1" as="geometry"/>
                </mxCell>
                <mxCell id="_ZFEDZUsBynfwyB9XKWT-944" value="" style="edgeStyle=none;rounded=0;orthogonalLoop=1;jettySize=auto;html=1;fontColor=#3202F0;" parent="WIyWlLk6GJQsqaUBKTNV-1" source="_ZFEDZUsBynfwyB9XKWT-938" target="_ZFEDZUsBynfwyB9XKWT-943" edge="1">
                    <mxGeometry relative="1" as="geometry"/>
                </mxCell>
                <mxCell id="_ZFEDZUsBynfwyB9XKWT-938" value="ChangePassword" style="rounded=0;whiteSpace=wrap;html=1;fillColor=#ffe6cc;strokeColor=#d79b00;fontColor=#3202F0;" parent="WIyWlLk6GJQsqaUBKTNV-1" vertex="1">
                    <mxGeometry x="-1280" y="590" width="120" height="60" as="geometry"/>
                </mxCell>
                <mxCell id="_ZFEDZUsBynfwyB9XKWT-940" value="changeLogin" style="rounded=0;whiteSpace=wrap;html=1;fillColor=#dae8fc;strokeColor=#6c8ebf;fontColor=#3202F0;" parent="WIyWlLk6GJQsqaUBKTNV-1" vertex="1">
                    <mxGeometry x="-1360" y="830" width="120" height="60" as="geometry"/>
                </mxCell>
                <mxCell id="_ZFEDZUsBynfwyB9XKWT-943" value="Change pass" style="whiteSpace=wrap;html=1;rounded=0;fillColor=#dae8fc;strokeColor=#6c8ebf;fontColor=#3202F0;" parent="WIyWlLk6GJQsqaUBKTNV-1" vertex="1">
                    <mxGeometry x="-1190" y="830" width="120" height="60" as="geometry"/>
                </mxCell>
                <mxCell id="_ZFEDZUsBynfwyB9XKWT-954" style="edgeStyle=none;rounded=0;orthogonalLoop=1;jettySize=auto;html=1;exitX=0.5;exitY=1;exitDx=0;exitDy=0;entryX=0.5;entryY=0;entryDx=0;entryDy=0;fontColor=#3202F0;" parent="WIyWlLk6GJQsqaUBKTNV-1" source="_ZFEDZUsBynfwyB9XKWT-945" target="_ZFEDZUsBynfwyB9XKWT-953" edge="1">
                    <mxGeometry relative="1" as="geometry"/>
                </mxCell>
                <mxCell id="_ZFEDZUsBynfwyB9XKWT-945" value="LogOut" style="rounded=0;whiteSpace=wrap;html=1;fillColor=#ffe6cc;strokeColor=#d79b00;fontColor=#3202F0;" parent="WIyWlLk6GJQsqaUBKTNV-1" vertex="1">
                    <mxGeometry x="-1580" y="590" width="120" height="60" as="geometry"/>
                </mxCell>
                <mxCell id="_ZFEDZUsBynfwyB9XKWT-949" value="NO" style="rounded=0;whiteSpace=wrap;html=1;fillColor=#ffe6cc;strokeColor=#d79b00;fontColor=#3202F0;" parent="WIyWlLk6GJQsqaUBKTNV-1" vertex="1">
                    <mxGeometry x="-1654" y="900" width="120" height="60" as="geometry"/>
                </mxCell>
                <mxCell id="_ZFEDZUsBynfwyB9XKWT-950" value="Yes" style="rounded=0;whiteSpace=wrap;html=1;fillColor=#ffe6cc;strokeColor=#d79b00;fontColor=#3202F0;" parent="WIyWlLk6GJQsqaUBKTNV-1" vertex="1">
                    <mxGeometry x="-1480" y="900" width="120" height="60" as="geometry"/>
                </mxCell>
                <mxCell id="_ZFEDZUsBynfwyB9XKWT-955" style="edgeStyle=none;rounded=0;orthogonalLoop=1;jettySize=auto;html=1;exitX=0.5;exitY=1;exitDx=0;exitDy=0;entryX=0.5;entryY=0;entryDx=0;entryDy=0;fontColor=#3202F0;" parent="WIyWlLk6GJQsqaUBKTNV-1" source="_ZFEDZUsBynfwyB9XKWT-953" target="_ZFEDZUsBynfwyB9XKWT-949" edge="1">
                    <mxGeometry relative="1" as="geometry">
                        <mxPoint x="-1580" y="910" as="targetPoint"/>
                    </mxGeometry>
                </mxCell>
                <mxCell id="_ZFEDZUsBynfwyB9XKWT-956" style="edgeStyle=none;rounded=0;orthogonalLoop=1;jettySize=auto;html=1;exitX=0.5;exitY=1;exitDx=0;exitDy=0;entryX=0.5;entryY=0;entryDx=0;entryDy=0;fontColor=#3202F0;" parent="WIyWlLk6GJQsqaUBKTNV-1" source="_ZFEDZUsBynfwyB9XKWT-953" target="_ZFEDZUsBynfwyB9XKWT-950" edge="1">
                    <mxGeometry relative="1" as="geometry">
                        <mxPoint x="-1490" y="830" as="targetPoint"/>
                    </mxGeometry>
                </mxCell>
                <mxCell id="_ZFEDZUsBynfwyB9XKWT-953" value="LogOut?" style="rhombus;whiteSpace=wrap;html=1;fillColor=#d5e8d4;strokeColor=#82b366;fontColor=#3202F0;" parent="WIyWlLk6GJQsqaUBKTNV-1" vertex="1">
                    <mxGeometry x="-1560" y="690" width="80" height="80" as="geometry"/>
                </mxCell>
            </root>
        </mxGraphModel>
    </diagram>
</mxfile>